<svg width="1024" height="1024" viewBox="0 0 100 100" xmlns="http://www.w3.org/2000/svg">
  <defs>
    <linearGradient id="bgGrad" x1="0" y1="0" x2="1" y2="1">
      <stop offset="0%" stop-color="#1A72FF"/>
      <stop offset="100%" stop-color="#08245C"/>
    </linearGradient>
    <linearGradient id="pageGrad" x1="0" y1="0" x2="0" y2="1">
      <stop offset="0%" stop-color="#FFFFFF"/>
      <stop offset="100%" stop-color="#E8EFFF"/>
    </linearGradient>
  </defs>
  <rect width="100" height="100" rx="22" fill="url(#bgGrad)"/>
  <rect x="10" y="6" width="80" height="30" rx="14" fill="#FFFFFF" fill-opacity="0.06"/>
  <path d="M46.53,55.92 L18.53,71.92 L25.47,84.08 L53.47,68.08 Z" fill="url(#pageGrad)"/>
  <circle cx="22" cy="78" r="6.3" fill="url(#pageGrad)"/>
  <path d="M55.40,66.45 L83.40,32.45 L72.60,23.55 L44.60,57.55 Z" fill="url(#pageGrad)"/>
  <circle cx="78" cy="28" r="6.3" fill="url(#pageGrad)"/>
  <circle cx="50" cy="62" r="5.95" fill="url(#pageGrad)"/>
  <path d="M50.00,17.50 L51.60,22.23 L56.50,21.25 L53.20,25.00 L56.50,28.75 L51.60,27.77 L50.00,32.50 L48.40,27.77 L43.50,28.75 L46.80,25.00 L43.50,21.25 L48.40,22.23 Z" fill="#FFC928"/>
</svg>
